{
  "asset": {
    "generator": "Khronos glTF Blender I/O v3.5.30",
    "version": "2.0"
  },
  "scene": 0,
  "scenes": [
    {
      "name": "Scene",
      "nodes": [0]
    }
  ],
  "nodes": [
    {
      "mesh": 0,
      "name": "\u6e38\u8247stl",
      "scale": [0.10000000149011612, 0.10000000149011612, 0.10000000149011612]
    }
  ],
  "meshes": [
    {
      "name": "\u6e38\u8247stl",
      "primitives": [
        {
          "attributes": {
            "POSITION": 0,
            "NORMAL": 1
          },
          "indices": 2
        }
      ]
    }
  ],
  "accessors": [
    {
      "bufferView": 0,
      "componentType": 5126,
      "count": 60388,
      "max": [3590, 679.0520629882812, 722.9328002929688],
      "min": [
        -9.094947017729282e-13, -1.1368683772161603e-13, -722.9328002929688
      ],
      "type": "VEC3"
    },
    {
      "bufferView": 1,
      "componentType": 5126,
      "count": 60388,
      "type": "VEC3"
    },
    {
      "bufferView": 2,
      "componentType": 5123,
      "count": 319422,
      "type": "SCALAR"
    }
  ],
  "bufferViews": [
    {
      "buffer": 0,
      "byteLength": 724656,
      "byteOffset": 0,
      "target": 34962
    },
    {
      "buffer": 0,
      "byteLength": 724656,
      "byteOffset": 724656,
      "target": 34962
    },
    {
      "buffer": 0,
      "byteLength": 638844,
      "byteOffset": 1449312,
      "target": 34963
    }
  ],
  "buffers": [
    {
      "byteLength": 2088156,
      "uri": "data:application/octet-stream;base64,"
    }
  ]
}
